<svg width="10" height="13" viewBox="0 0 10 13" fill="none" xmlns="http://www.w3.org/2000/svg">
<path d="M5 13C4.15796 12.2818 3.37746 11.4944 2.66667 10.646C1.6 9.37202 0.333333 7.47469 0.333333 5.66669C0.33287 4.74333 0.606338 3.84058 1.11913 3.0727C1.63192 2.30482 2.36098 1.70633 3.21404 1.35295C4.06711 0.999578 5.00583 0.907214 5.91141 1.08755C6.81699 1.26788 7.64872 1.71281 8.30133 2.36602C8.73584 2.79859 9.08023 3.31305 9.31459 3.8796C9.54895 4.44616 9.66862 5.05357 9.66667 5.66669C9.66667 7.47469 8.4 9.37202 7.33333 10.646C6.62254 11.4944 5.84204 12.2818 5 13ZM5 3.66669C4.46957 3.66669 3.96086 3.8774 3.58579 4.25247C3.21071 4.62755 3 5.13625 3 5.66669C3 6.19712 3.21071 6.70583 3.58579 7.0809C3.96086 7.45597 4.46957 7.66669 5 7.66669C5.53043 7.66669 6.03914 7.45597 6.41421 7.0809C6.78929 6.70583 7 6.19712 7 5.66669C7 5.13625 6.78929 4.62755 6.41421 4.25247C6.03914 3.8774 5.53043 3.66669 5 3.66669Z" fill="#954F1D"/>
</svg>
