<svg width="16" height="14" viewBox="0 0 16 14" fill="none" xmlns="http://www.w3.org/2000/svg">
<path d="M14.775 4.26249C16.4094 5.91874 16.4094 8.58124 14.775 10.2375L11.275 13.7781C10.9844 14.0719 10.5094 14.075 10.2156 13.7844C9.91875 13.4937 9.91875 13.0187 10.2094 12.7219L13.7063 9.18437C14.7656 8.11249 14.7656 6.38749 13.7063 5.31562L9.71562 1.27718C9.42188 0.982491 9.425 0.507804 9.72188 0.216554C10.0156 -0.0746963 10.4906 -0.0718838 10.7531 0.222804L14.775 4.26249ZM0 6.17187V1.49999C0 0.671554 0.671562 -8.85352e-06 1.5 -8.85352e-06H6.17188C6.70312 -8.85352e-06 7.20937 0.210616 7.58437 0.585929L12.8344 5.83437C13.6156 6.61562 13.6156 7.88437 12.8344 8.66562L8.66562 12.8344C7.88437 13.6156 6.61562 13.6156 5.83437 12.8344L0.585938 7.58437C0.210719 7.20937 0 6.70312 0 6.17187ZM3.5 2.49999C2.94781 2.49999 2.5 2.94687 2.5 3.49999C2.5 4.05312 2.94781 4.49999 3.5 4.49999C4.05312 4.49999 4.5 4.05312 4.5 3.49999C4.5 2.94687 4.05312 2.49999 3.5 2.49999Z" fill="#954F1D"/>
</svg>
